<?xml version="1.0" standalone="no"?>
<!DOCTYPE svg PUBLIC "-//W3C//DTD SVG 20010904//EN"
 "http://www.w3.org/TR/2001/REC-SVG-20010904/DTD/svg10.dtd">
<svg version="1.0" xmlns="http://www.w3.org/2000/svg"
 width="512.000000pt" height="512.000000pt" viewBox="0 0 512.000000 512.000000"
 preserveAspectRatio="xMidYMid meet">
<metadata>
Created by potrace 1.14, written by Peter Selinger 2001-2017
</metadata>
<g transform="translate(0.000000,512.000000) scale(0.100000,-0.100000)"
fill="#000000" stroke="none">
<path d="M1361 5104 c-30 -8 -66 -21 -80 -29 -14 -8 -36 -19 -48 -24 -38 -17
-137 -124 -159 -171 -42 -89 -47 -106 -50 -190 -8 -176 75 -327 224 -412 28
-16 52 -31 52 -33 0 -2 -18 -48 -40 -103 -39 -96 -73 -215 -85 -297 -4 -22
-10 -57 -15 -78 -9 -44 -6 -364 4 -417 28 -139 88 -303 138 -372 11 -16 17
-33 12 -37 -5 -4 -45 -35 -89 -68 -129 -98 -219 -177 -233 -205 -9 -19 -9 -34
-2 -53 9 -24 6 -31 -40 -75 -44 -42 -55 -48 -80 -43 -59 11 -74 0 -194 -148
-44 -54 -114 -166 -152 -244 -106 -220 -108 -446 -5 -615 l28 -46 -22 -28
c-110 -137 -131 -355 -62 -636 51 -207 83 -296 157 -445 80 -159 170 -258 280
-308 39 -18 65 -21 205 -21 148 0 306 8 365 18 14 3 52 8 85 11 33 3 80 8 104
11 24 2 47 6 50 8 4 3 34 7 66 11 33 3 74 10 90 15 35 10 125 25 140 23 6 -1
55 -11 110 -23 295 -63 668 -56 977 19 20 5 38 7 40 5 3 -3 46 -11 93 -19 20
-3 84 -14 114 -20 9 -1 39 -6 66 -9 28 -4 66 -9 85 -11 19 -3 58 -7 85 -10 28
-3 59 -7 70 -10 47 -10 222 -19 370 -20 153 0 162 1 215 27 154 74 281 264
374 558 56 174 57 229 8 244 -17 6 -17 11 -3 86 11 61 19 80 31 80 9 0 26 10
38 23 18 20 20 31 17 105 -2 45 -7 87 -10 92 -4 6 -9 22 -11 36 -6 31 -49 119
-75 153 -25 32 -24 41 11 98 77 124 88 310 30 485 -17 51 -35 97 -41 103 -5 5
-9 17 -9 26 0 10 -3 19 -7 21 -5 2 -19 23 -32 48 -99 184 -390 485 -671 695
-36 26 -69 51 -73 55 -5 4 6 30 22 59 66 110 109 239 130 381 10 68 8 363 -3
415 -4 17 -11 55 -17 85 -16 84 -47 186 -85 278 -19 45 -34 84 -34 87 0 2 18
14 40 25 104 53 185 153 222 274 54 179 -22 391 -178 495 -100 66 -245 94
-354 70 -108 -24 -217 -102 -280 -200 l-36 -56 -70 34 c-95 46 -270 100 -384
117 -137 21 -376 15 -507 -13 -114 -24 -250 -69 -333 -111 l-55 -28 -30 50
c-53 89 -154 167 -260 200 -51 16 -176 17 -234 2z"/>
</g>
</svg>
